<?xml version="1.0" encoding="UTF-8"?>
<svg width="36px" height="35px" viewBox="0 0 36 35" version="1.1" xmlns="http://www.w3.org/2000/svg" xmlns:xlink="http://www.w3.org/1999/xlink">
    <!-- Generator: Sketch 60.1 (88133) - https://sketch.com -->
    <title>baby</title>
    <desc>Created with Sketch.</desc>
    <g id="Page-1" stroke="none" stroke-width="1" fill="none" fill-rule="evenodd" opacity="0.8">
        <g id="Audience-Selection---Groups" transform="translate(-52.000000, -488.000000)" fill="#ffffff" fill-rule="nonzero">
            <g id="Group-5" transform="translate(20.000000, 118.000000)">
                <g id="Group-10" transform="translate(0.000000, 37.000000)">
                    <g id="Group-4-Copy-7" transform="translate(0.000000, 318.000000)">
                        <g id="baby" transform="translate(32.000000, 15.000000)">
                            <path d="M14.5700894,14.265205 L14.4502254,14.1891892 L13.1426107,15.7429586 L13.413437,15.9145323 C13.8925622,16.2181499 14.5398953,16.095066 14.859296,15.6396168 C15.1786967,15.1841677 15.0492145,14.5688225 14.5700894,14.265205 L14.5700894,14.265205 Z" id="Path"></path>
                            <path d="M8.29030975,12.2031404 L7.73326081,10.2445169 C7.6306505,9.88373063 7.77816996,9.4880452 8.0681768,9.34618536 L8.28519652,9.24005789 L8.28519652,8.58042385 C8.28519652,8.55800129 8.28614612,8.5357574 8.2865844,8.51351351 L6.52098907,9.77310723 L8.41288097,13.2432432 C8.34227008,12.9027686 8.30118626,12.5541436 8.29030975,12.2031404 L8.29030975,12.2031404 Z" id="Path"></path>
                            <path d="M10.5262647,5.76619289 C10.5397442,5.76619289 10.5526719,5.76619289 10.5656785,5.76691367 C10.5676492,5.76691367 10.569541,5.76691367 10.5715117,5.76691367 C11.2427462,5.75402765 11.8903796,6.01850534 12.3661024,6.49978076 C12.6636828,6.79763445 12.886334,7.16387577 13.0152482,7.56756757 C14.2182719,7.20571159 15.0412448,6.07981081 15.034461,4.80516074 L15.034461,2.88309645 C15.034461,1.29080625 13.7638943,0 12.1966229,0 C10.6293515,0 9.35882691,1.29080625 9.35882691,2.88309645 L9.35882691,4.80516074 C9.35882691,5.19668641 9.43759648,5.58408031 9.59042261,5.94350332 C9.88907694,5.82677017 10.206271,5.76667263 10.5262647,5.76619289 Z M12.5119335,3.2034405 L13.7731762,3.2034405 L13.7731762,4.48481669 L12.5119335,4.48481669 L12.5119335,3.2034405 Z" id="Shape"></path>
                            <path d="M22.6020702,26.2182566 L27.950378,28.2385707 C28.683732,28.5155204 29.4898587,28.3761056 30.1169343,27.8638776 C30.74401,27.3516497 31.1155837,26.5290567 31.1155837,25.6530663 L31.1155837,25.0491654 C31.1128527,23.8281389 30.3960554,22.7571575 29.3592224,22.4249505 L24.2722744,20.8108108 L22.6020702,26.2182566 Z" id="Path"></path>
                            <path d="M24.4973243,12.6299167 L24.4543311,12.805462 C25.0232949,12.8982767 25.6064712,12.8061536 26.1212402,12.542144 L26.6836884,13.6892006 C25.9009913,14.0921327 25.0096931,14.2200672 24.1483486,14.0531165 L23.9306318,14.9409431 C23.9020568,15.058972 23.8875164,15.1800796 23.8873242,15.3016527 C23.886752,15.9842756 24.342379,16.5794524 24.9918637,16.7444912 L25.4501694,16.8615214 C26.0102205,17.0036753 26.4031105,17.5169011 26.4024643,18.1054887 L26.4024643,20.273113 L28.2853611,20.8108108 L32.0615296,20.8108108 L32.0615296,17.6834584 L30.8227445,12.6299167 C30.7512901,12.3383587 30.8879608,12.0353024 31.1515205,11.9008824 L31.3524959,11.7983607 C31.8058765,11.5671835 31.9896541,11.0049469 31.7629746,10.5425702 C31.5362952,10.0801936 30.9849976,9.89276943 30.531617,10.1239467 L29.8276136,10.4828928 C29.6703359,10.563106 29.4873088,10.5724872 29.3229376,10.5087606 C29.1585664,10.445034 29.0278718,10.314023 28.9625626,10.1475131 L28.5470143,9.08790851 C28.1045312,7.94674768 28.2789593,6.65273477 29.0069705,5.67567568 C27.4831974,6.19385906 26.3085104,7.4458193 25.8679971,9.02113715 L25.7493139,9.44436977 C25.7008704,9.61714667 25.5835639,9.76126598 25.4259612,9.8416313 L23.5480161,10.7991149 L24.4104734,12.1184304 C24.5088192,12.2688207 24.5403576,12.4545579 24.4973243,12.6299167 Z M26.4024643,9.26810301 L27.6600344,9.26810301 L27.6600344,10.5506261 L26.4024643,10.5506261 L26.4024643,9.26810301 Z" id="Shape"></path>
                            <path d="M5.10205503,13.2432432 C4.31879544,13.2440391 3.68406962,13.7880845 3.68314115,14.4594434 L3.68314115,16.8918438 C3.68314115,17.0832478 3.57800378,17.2634815 3.39935838,17.3783239 L0.845313399,19.0201942 L0.845313399,21.3045982 C0.845313399,21.5263286 1.03286471,21.7153524 1.28821109,21.7508764 C1.54355747,21.7864004 1.7912697,21.6579364 1.87305046,21.4475777 L2.30067563,20.3481328 C2.3601213,20.1951329 2.48808395,20.0686618 2.6563796,19.9965749 L4.56011861,19.1807326 C5.76504225,18.6686344 6.52550383,17.6139221 6.52098907,16.4611569 L6.52098907,14.4594434 C6.52004044,13.7880845 5.88531462,13.2440391 5.10205503,13.2432432 L5.10205503,13.2432432 Z" id="Path"></path>
                            <path d="M4.2382753,9.78414646 C3.44154894,10.2170475 2.89215519,10.9535726 2.73720529,11.7965024 C3.55604205,11.3779281 4.55296743,11.3911627 5.35849473,11.831301 C6.16402204,12.2714393 6.65811614,13.0728944 6.65765279,13.9386261 L6.65765279,15.1351351 C7.09439927,15.079939 7.51352987,14.9396413 7.88737839,14.723503 L8.41288097,14.419692 L4.8398766,9.45945946 L4.2382753,9.78414646 Z" id="Path"></path>
                            <path d="M31.8422159,5.00371252 L28.3012529,3.78378378 C28.1663332,4.48809454 28.6236275,5.17562453 29.3793328,5.40464877 C29.6212274,5.47689593 29.796064,5.6662397 29.8299152,5.8926185 C29.8637663,6.1189973 29.7507208,6.34287999 29.5385785,6.46960065 C28.6371874,7.01206267 28.2793792,8.04370064 28.6789189,8.94818364 L28.8507674,9.3329718 L28.9492527,9.28878882 C29.5932449,9.0002084 30.3506415,8.99713759 30.9975238,9.28048425 C31.6444062,9.56383091 32.1067716,10.1011804 32.2479251,10.7336695 C32.4286675,11.5509129 32.0461638,12.3857386 31.2765932,12.8536302 L32.1773162,16.0810811 L34.3003415,13.9078167 C35.6437409,12.5324509 36.1523763,10.6559989 35.6626614,8.8819617 C35.1729466,7.10792449 33.7466394,5.66002602 31.8424662,5.0039368 L31.8422159,5.00371252 Z" id="Path"></path>
                            <path d="M31.0139535,21.7567568 C31.9622593,22.4917898 32.5207011,23.6384955 32.523539,24.8565428 L32.523539,25.4380631 C32.5234871,26.6872028 31.937198,27.8601755 30.9478148,28.5905716 C29.9584315,29.3209678 28.6865702,29.5197445 27.5295309,29.1248086 L23.7821969,27.8454167 L21.6561242,35 L31.4201731,35 L32.754433,29.1925225 C33.3340758,26.6511896 32.9088599,23.978195 31.5715627,21.7567568 L31.0139535,21.7567568 Z" id="Path"></path>
                            <path d="M16.7151624,18.5963088 C16.538215,18.5487727 16.39042,18.4316475 16.3082366,18.2738266 L15.4551574,16.6353887 C14.7484604,16.9261429 13.9366652,16.8544968 13.2969858,16.4449163 L11.2507188,15.1351351 L13.7248276,21.9643175 C13.9921865,22.6956221 14.5957322,23.2676844 15.3606693,23.514827 L21.6871445,25.5405405 L23.5480161,20.4341292 L16.7151624,18.5963088 Z" id="Path"></path>
                            <path d="M14.0885566,12.7672058 L12.9296082,11.9742174 C12.7654512,11.8617065 12.6669,11.67244 12.6669625,11.4698089 L12.6669625,7.92242873 C12.6669625,7.90090649 12.6669625,7.87991473 12.6652646,7.8583925 C12.6304017,7.18257265 12.0986812,6.64591154 11.4398797,6.62162162 C10.8075075,6.6496741 10.3079655,7.18245166 10.3047729,7.83224752 L10.3047729,10.735552 C10.3037023,11.7493528 10.797362,12.6963071 11.6196274,13.2577461 L12.9805429,14.1891892 L14.0885566,12.7672058 Z" id="Path"></path>
                        </g>
                    </g>
                </g>
            </g>
        </g>
    </g>
</svg>