<svg width="55" height="55" viewBox="0 0 55 55" fill="none" xmlns="http://www.w3.org/2000/svg">
<g clip-path="url(#clip0)">
<path d="M55 27.5003C55 12.3113 42.6877 0 27.5003 0C12.3123 0 0 12.3112 0 27.5003C0 42.6872 12.3123 54.9993 27.5003 54.9993C42.6877 54.9993 55 42.6872 55 27.5003Z" fill="#368604"/>
<path d="M42.6413 18.2851C41.9939 16.6158 40.6748 16.8793 39.2454 17.1625C38.3917 17.3405 34.5948 18.4519 28.5872 24.7866C26.0941 27.4157 24.4495 29.5117 23.3667 31.1101C22.7053 30.298 21.9475 29.4292 21.1517 28.633C18.7043 26.1863 15.975 24.506 15.8603 24.4354C14.715 23.7353 13.2198 24.0955 12.5177 25.24C11.8164 26.3844 12.1756 27.882 13.3191 28.5848C13.3425 28.5996 15.6863 30.0486 17.711 32.0739C19.7758 34.1389 21.6466 36.9316 21.665 36.9587C22.1205 37.6435 22.8853 38.0431 23.6899 38.0431C23.828 38.0431 23.9674 38.0315 24.1062 38.0075C25.0558 37.8425 25.8186 37.1325 26.0511 36.197C26.057 36.1745 27.0217 33.5082 32.118 28.1351C36.2228 23.806 38.9601 22.4301 39.9086 22.0484C39.9177 22.0469 39.9242 22.0462 39.9365 22.0437C39.932 22.0448 39.9672 22.0285 40.0244 22.0028C40.1873 21.9417 40.2745 21.9183 40.2795 21.9171C40.2327 21.9287 40.2084 21.9316 40.2084 21.9316L40.2069 21.9232C40.6458 21.7317 41.4674 21.3782 41.4853 21.3707C42.7225 20.8624 43.1247 19.5318 42.6413 18.2851Z" fill="white"/>
</g>
<defs>
<clipPath id="clip0">
</clipPath>
</defs>
</svg>
