<?xml version="1.0" encoding="UTF-8"?>
<svg width="41px" height="35px" viewBox="0 0 41 35" version="1.1" xmlns="http://www.w3.org/2000/svg" xmlns:xlink="http://www.w3.org/1999/xlink">
    <!-- Generator: Sketch 60.1 (88133) - https://sketch.com -->
    <title>family-silhouette</title>
    <desc>Created with Sketch.</desc>
    <g id="Page-1" stroke="none" stroke-width="1" fill="none" fill-rule="evenodd" opacity="0.8">
        <g id="Audience-Selection---Groups" transform="translate(-168.000000, -382.000000)" fill="#953332" fill-rule="nonzero">
            <g id="Group-5" transform="translate(20.000000, 118.000000)">
                <g id="Group-10" transform="translate(0.000000, 37.000000)">
                    <g id="Group-4-Copy-4" transform="translate(118.000000, 212.000000)">
                        <g id="family-silhouette" transform="translate(30.000000, 15.000000)">
                            <circle id="Oval" cx="20.1854299" cy="19.0909091" r="4.24242424"></circle>
                            <path d="M22.2337241,23.8636364 L18.6694771,23.8636364 C15.7040986,23.8636364 13.2914905,26.289452 13.2914905,29.2696461 L13.2914905,33.652188 L13.3025051,33.7202551 L13.6023473,33.814155 C16.4322869,34.7031287 18.8914011,35 20.9156422,35 C24.8678484,35 27.1584798,33.8666406 27.300038,33.795293 L27.5807067,33.6513679 L27.6096723,33.652188 L27.6096723,29.269236 C27.6117108,26.289452 25.1999185,23.8636364 22.2337241,23.8636364 Z" id="Path"></path>
                            <circle id="Oval" cx="11.7005814" cy="6.89393939" r="6.89393939"></circle>
                            <path d="M29.2007889,13.7878788 C33.0085495,13.7878788 36.0945208,10.7001111 36.0945208,6.89310935 C36.0945208,3.08735267 33.0073044,0 29.2007889,0 C25.3921982,0 22.306642,3.08652262 22.306642,6.89310935 C22.306642,10.6996961 25.3921982,13.7878788 29.2007889,13.7878788 Z" id="Path"></path>
                            <path d="M17.2588723,23.2226043 C16.1579412,22.2865533 15.4578042,20.9042931 15.4578042,19.3623198 C15.4578042,17.4712826 16.509471,15.8206385 18.0642178,14.9401577 C17.0517954,14.5429329 15.9512818,14.3181818 14.7969116,14.3181818 L8.91233704,14.3181818 C4.0168052,14.3177702 0.0339147287,18.2463856 0.0339147287,23.0723587 L0.0339147287,30.1693053 L0.0518669604,30.2800343 L0.547432054,30.4319265 C5.13234853,31.8446473 9.12358888,32.3307847 12.4284695,32.3484848 L12.4284695,29.3159922 C12.4284695,26.3752935 14.4888012,23.9071483 17.2588723,23.2226043 Z" id="Path"></path>
                            <path d="M31.9871558,14.3181818 L26.1034162,14.3181818 C24.949046,14.3181818 23.8497849,14.5429277 22.836945,14.9401435 C24.3929443,15.8206042 25.4446111,17.4703874 25.4446111,19.3622047 C25.4446111,20.9033195 24.7440565,22.2855481 23.6439605,23.2215778 C24.7528239,23.4936603 25.7735961,24.0530554 26.6031562,24.871361 C27.8088782,26.0609502 28.4731108,27.6399344 28.4726933,29.3168847 L28.4726933,32.3484848 C31.7775739,32.3307851 35.7692318,31.8442472 40.3533132,30.4319702 L40.8488783,30.2800815 L40.8672481,30.169355 L40.8672481,23.0725704 C40.8655781,18.2467075 36.8826876,14.3181818 31.9871558,14.3181818 Z" id="Path"></path>
                        </g>
                    </g>
                </g>
            </g>
        </g>
    </g>
</svg>