<?xml version="1.0" encoding="UTF-8"?>
<svg width="30px" height="35px" viewBox="0 0 30 35" version="1.1" xmlns="http://www.w3.org/2000/svg" xmlns:xlink="http://www.w3.org/1999/xlink">
    <!-- Generator: Sketch 60.1 (88133) - https://sketch.com -->
    <title>female-graduate-student</title>
    <desc>Created with Sketch.</desc>
    <g id="Page-1" stroke="none" stroke-width="1" fill="none" fill-rule="evenodd" opacity="0.8">
        <g id="Audience-Selection---Groups" transform="translate(-290.000000, -170.000000)" fill="#B13D00" fill-rule="nonzero">
            <g id="Group-5" transform="translate(20.000000, 118.000000)">
                <g id="Group-10" transform="translate(0.000000, 37.000000)">
                    <g id="Group-4-Copy" transform="translate(235.000000, 0.000000)">
                        <g id="female-graduate-student" transform="translate(35.000000, 15.000000)">
                            <path d="M26.1678771,22.8845818 C25.8878223,22.2128899 25.2143652,21.7816823 24.5718135,21.5170663 L22.4298917,20.5270031 C22.4275717,18.947878 22.4127404,11.0827918 22.4215232,10.2555755 C22.4342002,8.96869305 22.2814958,7.81927774 21.9447672,6.82497067 L24.6117503,5.85720841 L24.6178817,8.33178399 L24.4365918,8.33170078 C24.3105671,8.3205503 24.1992081,8.41158485 24.1847082,8.53790155 L23.9499759,10.5815192 C23.9426846,10.643679 23.9611615,10.7057556 24.0004355,10.7546846 C24.0396266,10.8033639 24.0970461,10.8348183 24.1590227,10.8400607 L26.0218012,10.839395 C26.0844407,10.8323219 26.1415287,10.8022822 26.1802227,10.7533532 C26.2199938,10.7045906 26.2376422,10.6415155 26.2306823,10.579106 C26.1837027,10.1777718 26.1368888,9.77702002 26.0904063,9.37568576 L25.9931329,8.53565481 C25.9783016,8.41041988 25.8666939,8.3192189 25.7409179,8.33045259 L25.559628,8.33070223 L25.5635222,5.51121052 L25.65831,5.4766773 L25.9736616,5.36226001 C26.2410393,5.26540057 26.4187664,5.01068687 26.4187664,4.7256838 C26.4187664,4.4405143 26.2409565,4.18580061 25.9736616,4.08885795 L14.8195277,0.0405661308 C14.6712975,-0.0135220436 14.5093132,-0.0135220436 14.3612487,0.0405661308 L3.20670058,4.08894117 C2.93932285,4.18588382 2.76143008,4.44068073 2.76143008,4.72576701 C2.76143008,5.0108533 2.93932285,5.26548378 3.20670058,5.36234322 L7.2516691,6.83054591 C6.8984521,7.85048245 6.73771061,9.02993751 6.75088478,10.3470262 L6.75105049,20.5266702 L4.60879725,21.5170663 C3.96607985,21.7816823 3.33421664,22.1840983 3.01273366,22.8845818 C3.01273366,22.8845818 -1.70991768,35 0.851754858,35 L28.3286073,35 C30.8906113,35 26.1678771,22.8845818 26.1678771,22.8845818 Z M18.8834704,21.8440917 C18.8834704,21.8440917 15.2882466,23.0404389 14.5958153,27.2425076 C14.5939925,27.2535749 14.5870325,27.2535749 14.5851268,27.2425076 C13.8925299,23.0404389 10.2974718,21.8440917 10.2974718,21.8440917 L12.6538261,19.4940022 C9.33186287,17.9976736 8.44844751,12.9096407 8.44844751,12.9096407 C8.26069482,12.1741247 8.23807501,11.6710215 8.23807501,11.6710215 C9.90125232,11.5572699 15.7057602,11.0551652 16.1025597,9.16540758 C16.6496607,10.180601 19.5461562,12.731649 20.7180776,12.9253678 C20.7180776,12.9253678 19.5805416,17.9566498 16.4734251,19.490424 L18.8834704,21.8440917 Z" id="Shape"></path>
                        </g>
                    </g>
                </g>
            </g>
        </g>
    </g>
</svg>