<?xml version="1.0" encoding="UTF-8"?>
<svg width="55px" height="35px" viewBox="0 0 55 35" version="1.1" xmlns="http://www.w3.org/2000/svg" xmlns:xlink="http://www.w3.org/1999/xlink">
    <!-- Generator: Sketch 60.1 (88133) - https://sketch.com -->
    <title>jumping-rope</title>
    <desc>Created with Sketch.</desc>
    <g id="Page-1" stroke="none" stroke-width="1" fill="none" fill-rule="evenodd" opacity="0.8">
        <g id="Audience-Selection---Groups" transform="translate(-43.000000, -170.000000)" fill="#B13D00" fill-rule="nonzero">
            <g id="Group-5" transform="translate(20.000000, 118.000000)">
                <g id="Group-10" transform="translate(0.000000, 37.000000)">
                    <g id="Group-3">
                        <g id="jumping-rope" transform="translate(23.000000, 15.000000)">
                            <path d="M33.3714622,11.7906329 C32.7641502,10.5790929 32.0521927,10.1422077 31.6203,9.93284717 C31.3120989,9.78343895 30.9567154,9.74354075 30.63239,9.95111634 L30.6767588,9.85011092 C30.7475325,9.68883824 30.6702658,9.5022617 30.5038286,9.43359481 C30.3615237,9.37479748 30.2004973,9.42194034 30.1126253,9.53796008 C30.1240963,9.43915956 30.1303729,9.3389941 30.1303729,9.23735871 C30.1303729,7.7600757 28.8960535,6.5625 27.3734449,6.5625 C25.8508364,6.5625 24.616517,7.7600757 24.616517,9.23735871 C24.616517,9.33909909 24.6229018,9.43915956 24.6342645,9.53796008 C24.5463926,9.42204533 24.3854744,9.37469248 24.2430613,9.43359481 C24.0768405,9.5022617 23.9993573,9.68883824 24.070131,9.85011092 L24.1144999,9.95111634 C23.7897416,9.74333076 23.4343581,9.78322896 23.126157,9.93263718 C22.6943725,10.1419977 21.982415,10.5786729 21.3749948,11.7904229 C21.3446942,11.8510052 21.3545419,11.9230319 21.4001011,11.9737446 C21.4456603,12.0243523 21.5180573,12.0437764 21.5839612,12.0227774 C22.6582281,11.6809129 23.7459139,11.9838242 24.1696904,11.7784535 C24.420212,11.657079 24.5911943,11.4434137 24.662942,11.2015046 L24.7106655,11.3100697 C24.7814392,11.4713424 24.9737402,11.546519 25.139961,11.4778521 C25.3061819,11.4091852 25.383665,11.2226087 25.3128913,11.061336 L25.2720936,10.9684152 C25.7777901,11.545574 26.5310864,11.9123224 27.3731203,11.9123224 C28.215046,11.9123224 28.9683422,11.545679 29.474147,10.9684152 L29.4333493,11.061336 C29.3625756,11.2226087 29.4398423,11.4091852 29.6062795,11.4778521 C29.7725003,11.546624 29.9648013,11.4715524 30.0355751,11.3100697 L30.0832986,11.2015046 C30.1550463,11.4435187 30.3260286,11.656974 30.5765502,11.7785585 C31.0003267,11.9839292 32.0880124,11.6810179 33.1622793,12.0228824 C33.2281833,12.0438814 33.3005802,12.0245623 33.3461395,11.9738496 C33.3919151,11.9233469 33.4017628,11.8512152 33.3714622,11.7906329 Z" id="Path"></path>
                            <path d="M37.5728557,23.57205 C37.1841694,22.936398 36.329081,22.7221529 35.6632838,23.0937711 L32.0681506,25.1006124 L31.5217754,23.3818266 C31.6449598,23.3642723 31.7588999,23.3069897 31.8402703,23.2147011 C31.9381943,23.1037289 31.9799007,22.9572374 31.9542104,22.8141335 C30.6999017,15.8333565 30.8249134,16.6194009 30.8249134,16.2911039 L31.8701527,17.6844671 C32.1235083,18.0223112 32.5548684,18.1986759 32.9899906,18.1360551 L36.5418051,17.6228729 C37.177075,17.5310975 37.6142396,16.964739 37.5181429,16.3580363 C37.4220463,15.7512309 36.8295576,15.3339303 36.1937503,15.4256029 L33.3467522,15.8369494 L30.8399621,12.4952595 C30.6214335,12.2040217 30.2692941,12.03125 29.8940441,12.03125 C27.7121983,12.03125 28.7012201,12.03125 25.6540743,12.03125 C25.3227881,12.03125 25.0073029,12.1660386 24.7865171,12.4019443 L21.8420249,15.5481754 L19.1781909,15.6831693 C18.5364716,15.7157116 18.0438418,16.2389542 18.0780239,16.8517137 C18.1110235,17.4445577 18.6246139,17.9040503 19.2389232,17.9040503 C19.2886914,17.9040503 22.3985042,17.7454453 22.4487023,17.7428789 C22.7580605,17.727275 23.0480703,17.5944369 23.2545599,17.3737244 L24.6046428,15.9310859 L22.8313691,22.7792302 C22.7933174,22.9261323 22.8281444,23.081555 22.9258534,23.2007397 C23.0235625,23.3199245 23.1731895,23.3896286 23.3316307,23.3896286 L24.3964334,23.3896286 L23.9842066,26.9577798 C23.9376632,27.3605031 24.0853554,27.7614812 24.3855768,28.0476889 C24.6869807,28.3351284 25.1079142,28.4742286 25.5274503,28.4291622 L28.8468699,28.0741744 C28.7671118,27.894114 28.8270916,28.0634981 28.0060778,25.4805459 L26.9511643,25.5933659 L27.2058097,23.3897312 C27.7211201,23.3897312 28.0194067,23.3897312 28.6058758,23.3897312 L29.9096303,27.4913907 C30.0336745,27.8818979 30.3381956,28.1966442 30.7361261,28.3454968 C31.128682,28.4923989 31.5763807,28.4638603 31.9502333,28.2552613 L37.0721641,25.3960592 C37.7377464,25.0243383 37.9618644,24.2078047 37.5728557,23.57205 Z" id="Path"></path>
                            <circle id="Oval" cx="49.2482223" cy="7.109375" r="2.734375"></circle>
                            <path d="M53.799613,15.5810842 L50.6084773,12.6007146 L51.8916936,13.2645639 C51.9415192,12.7704165 51.804499,12.2746889 51.502929,11.8792445 C51.2097331,11.4946501 50.7852742,11.2368844 50.31413,11.1496634 C49.5306343,11.0133541 48.4367758,10.9047491 48.4367758,10.9047491 C47.9233428,10.8392279 47.405304,10.9828056 46.9975931,11.3035643 C46.5898823,11.624323 46.3265188,12.0957172 46.2658071,12.6128286 L46.1482565,13.6150283 L44.5674479,14.8683574 L41.7914551,15.1449788 C41.5227532,13.6990892 40.856494,10.891055 39.3801515,8.06627171 C36.57307,2.69564413 32.1897857,-0.0921649696 26.7106541,0.0023245358 C21.2242999,0.0975514175 17.0231509,2.95498991 14.5613937,8.26557399 C13.2856094,11.0174623 12.7968797,13.7263722 12.6154771,15.1569875 C10.8251083,15.3961081 11.2795044,15.3354326 9.62856327,15.5559081 L6.54252175,12.315666 L9.07357405,13.96307 L8.91551413,12.6155674 C8.85480237,12.098456 8.59143895,11.6270618 8.18372808,11.3063032 C7.77601721,10.9855445 7.25797843,10.8419668 6.74454536,10.9074879 C4.81600493,11.1534556 4.8553629,11.1367066 4.61733093,11.2146578 C4.34266256,11.2538441 4.08086927,11.3904694 3.88952255,11.6219002 L0.844409125,15.3042521 C0.651701627,15.537263 0.556865672,15.8366378 0.57968492,16.1387514 L1.01471608,21.8749069 C1.0610873,22.4868239 1.56897257,22.9522137 2.16876288,22.9522137 C2.84685042,22.9522137 3.37650818,22.3724253 3.32521721,21.6975153 L2.92588039,16.4325432 L3.60491001,15.611422 L5.10396708,26.7272643 L4.85599095,33.5494698 C4.82793793,34.3217135 5.42730954,34.9706046 6.19468524,34.9989409 C6.97273784,35.0252758 7.60728039,34.4156763 7.63501939,33.6517544 L7.88749657,26.7028256 C7.89053215,26.6184486 7.88603111,26.5340717 7.87399343,26.4505375 L7.28142573,21.4366947 L9.42392277,26.761921 L8.528529,33.4128445 C8.42552836,34.1785571 8.95864041,34.8833835 9.71963091,34.9871429 C10.479156,35.0909023 11.1809001,34.5553564 11.2842148,33.7884851 L12.2293294,26.7692948 C12.2617788,26.5278567 12.2312136,26.2820997 12.1402506,26.0562519 L9.81394349,20.2742737 L9.74621848,19.6972241 C9.24796335,19.7250337 8.73672847,19.6006278 8.28568197,19.3070467 C7.92821531,19.0743518 7.64653369,18.7539091 7.45780386,18.4016539 L5.34964036,14.4333054 L8.36230439,17.5963336 C8.62252755,17.8695842 8.99245058,17.9935688 9.35117334,17.9453233 C10.1765392,17.8350329 13.730794,17.3602679 14.3074511,17.2832647 C14.9417843,17.1985718 15.3878064,16.6123576 15.3035426,15.9740005 C15.2323633,15.4340303 14.8041361,15.0308962 14.2899703,14.9705367 C14.4945061,13.5800556 14.9691046,11.269329 16.039725,8.95955043 C18.2507845,4.1900952 21.8504684,1.72862778 26.7389165,1.64372417 C31.6186765,1.55797784 35.3788279,3.96361534 37.9159514,8.79121795 C39.2521334,11.3335861 39.8893976,13.9226196 40.1589368,15.3077283 L40.1148685,15.3120472 C39.4781277,15.3754616 39.01295,15.9464015 39.0760693,16.5872869 C39.1389793,17.2268028 39.7048547,17.6960901 40.3432703,17.6326758 L45.1330094,17.1553826 C45.3881035,17.1299958 45.5825904,17.0323461 45.7645164,16.8882417 L45.3675871,20.2715348 L43.0412799,26.0535131 C42.9504216,26.2792556 42.9197517,26.5250125 42.9522011,26.7665559 L43.8973157,33.7857462 C44.000107,34.5494574 44.6981876,35.0881635 45.4618996,34.9844041 C46.2227855,34.8806447 46.7561069,34.175713 46.6530016,33.4101057 L45.7576078,26.7591822 L47.5455691,22.3152259 L47.5455691,33.5978206 C47.5455691,34.3704857 48.168074,34.9969395 48.9358684,34.9969395 C49.7036628,34.9969395 50.3261677,34.3704857 50.3261677,33.5978206 L50.3261677,21.1151987 C50.6891821,20.8047632 50.9288889,20.3712913 50.9937877,19.8936822 L51.2588259,17.9444806 L48.5237611,13.8349772 L51.7926707,16.8881364 C51.5047085,19.3774134 51.4480791,19.8667153 51.1892167,22.1052844 C51.1152112,22.7449056 51.5705494,23.3238514 52.2061387,23.3983264 C52.8403672,23.4728014 53.4168149,23.0156281 53.4910298,22.3749534 C53.6221881,21.240658 54.0294803,17.7201075 54.1623134,16.5706432 C54.205021,16.201323 54.0703037,15.8337936 53.799613,15.5810842 Z" id="Path"></path>
                            <circle id="Oval" cx="7.68572231" cy="7.109375" r="2.734375"></circle>
                        </g>
                    </g>
                </g>
            </g>
        </g>
    </g>
</svg>