<?xml version="1.0" encoding="UTF-8"?>
<svg width="23px" height="35px" viewBox="0 0 23 35" version="1.1" xmlns="http://www.w3.org/2000/svg" xmlns:xlink="http://www.w3.org/1999/xlink">
    <!-- Generator: Sketch 60.1 (88133) - https://sketch.com -->
    <title>man</title>
    <desc>Created with Sketch.</desc>
    <g id="Page-1" stroke="none" stroke-width="1" fill="none" fill-rule="evenodd">
        <g id="Audience-Selection---Groups" transform="translate(-59.000000, -276.000000)" fill="#B13D00" fill-rule="nonzero">
            <g id="Group-5" transform="translate(20.000000, 118.000000)">
                <g id="Group-10" transform="translate(0.000000, 37.000000)">
                    <g id="Group-4-Copy-2" transform="translate(0.000000, 106.000000)">
                        <g id="man" transform="translate(39.000000, 15.000000)">
                            <path d="M16.9497143,14.7605714 C16.8632435,14.7604993 16.7814574,14.7212701 16.7272772,14.6538779 C16.673097,14.5864857 16.6523524,14.4981819 16.6708571,14.4137143 C16.8366153,13.8248462 17.4031674,13.4415904 18.0114286,13.5068571 C18.1145915,13.5172797 18.2040108,13.5827751 18.245069,13.6779878 C18.2861272,13.7732004 18.2723793,13.8831843 18.2091474,13.9653607 C18.1459156,14.0475371 18.0431257,14.0890064 17.9405714,14.0737143 C17.6253365,14.0464129 17.3319026,14.236933 17.2285714,14.536 C17.1998643,14.6670382 17.0838601,14.7604596 16.9497143,14.7605714 L16.9497143,14.7605714 Z" id="Path"></path>
                            <path d="M7.85714286,18.3302857 L7.79257143,18.3302857 C7.22602051,18.3488326 6.67775976,18.1284085 6.28171429,17.7228571 C6.17772697,17.6034058 6.190263,17.4222731 6.3097143,17.3182857 C6.42916559,17.2142984 6.61029838,17.2268344 6.71428571,17.3462857 C7.00659013,17.6272331 7.401249,17.7761337 7.80628571,17.7582857 C8.2905067,17.7881701 8.76870993,17.6381974 9.14914286,17.3371429 C9.21957522,17.2632399 9.32408415,17.232526 9.42330215,17.2565707 C9.52252016,17.2806155 9.60137366,17.3557659 9.6301593,17.4537136 C9.65894494,17.5516613 9.63328951,17.6575256 9.56285714,17.7314286 C9.09214369,18.1424399 8.48147967,18.3568371 7.85714286,18.3302857 L7.85714286,18.3302857 Z" id="Path"></path>
                            <path d="M7.64057143,16.5285714 C7.35335594,16.5263075 7.07768258,16.4152214 6.86914286,16.2177143 C6.62954439,16.0302151 6.51703845,15.7230385 6.57885714,15.4251429 C6.62752214,15.2787615 6.78359603,15.1974401 6.93145076,15.2414262 C7.0793055,15.2854122 7.16554826,15.4388214 7.12628571,15.588 C7.15476284,15.6956826 7.22322079,15.7884585 7.31771429,15.8474286 C7.46103508,15.9588125 7.65206403,15.9874019 7.82171429,15.9228571 C7.91684901,15.8857015 8.02457941,15.9021221 8.10432448,15.9659334 C8.18406955,16.0297446 8.22371413,16.1312522 8.20832448,16.2322191 C8.19293483,16.333186 8.12484901,16.418273 8.02971429,16.4554286 C7.90566342,16.5037488 7.77370092,16.5285523 7.64057143,16.5285714 L7.64057143,16.5285714 Z" id="Path"></path>
                            <path d="M12.6171429,11.18 C12.5586884,11.1799787 12.5016469,11.1620286 12.4537143,11.1285714 C11.5543052,10.617202 10.4589014,10.5889003 9.53428571,11.0531429 C9.45569834,11.1231741 9.3449696,11.1443216 9.24610502,11.1081809 C9.14724044,11.0720403 9.07625571,10.9844661 9.06136137,10.8802619 C9.04646704,10.7760577 9.09007594,10.6721042 9.17485714,10.6097143 C10.2988612,9.97884468 11.6745975,9.99803086 12.7805714,10.66 C12.8828724,10.7314065 12.9270142,10.8609328 12.8896087,10.9799505 C12.8522031,11.0989682 12.7419002,11.1799547 12.6171429,11.18 L12.6171429,11.18 Z" id="Path"></path>
                            <path d="M5.67428571,11.2542857 C5.60591793,11.2542683 5.53982278,11.2297361 5.488,11.1851429 C4.96514286,10.7354286 3.37371429,10.9137143 3.14514286,11.0885714 C3.01890634,11.1832488 2.83982025,11.1576651 2.74514287,11.0314286 C2.65046548,10.9051921 2.67604921,10.726106 2.80228571,10.6314286 C3.26742857,10.2828571 5.148,10.1365714 5.86285714,10.752 C5.95340058,10.8299121 5.98591943,10.9559272 5.94438279,11.0679232 C5.90284614,11.1799193 5.79602186,11.2542553 5.67657143,11.2542857 L5.67428571,11.2542857 Z" id="Path"></path>
                            <path d="M15.8851429,12.9708571 L12.8022857,13.2468571 L12.8022857,12.9857143 C12.8022857,12.5123274 12.4185298,12.1285714 11.9451429,12.1285714 L8.95428571,12.1285714 C8.48089879,12.1285714 8.09714286,12.5123274 8.09714286,12.9857143 L8.09714286,13.7171429 L6.55771429,13.7171429 L6.55771429,12.9857143 C6.55771429,12.5123274 6.17395836,12.1285714 5.70057143,12.1285714 L2.70914286,12.1285714 C2.23575593,12.1285714 1.852,12.5123274 1.852,12.9857143 L1.852,14.6131429 C1.852,15.0865298 2.23575593,15.4702857 2.70914286,15.4702857 L5.70057143,15.4702857 C6.17395836,15.4702857 6.55771429,15.0865298 6.55771429,14.6131429 L6.55771429,14.2885714 L8.09714286,14.2885714 L8.09714286,14.6114286 C8.09714286,15.0848155 8.48089879,15.4685714 8.95428571,15.4685714 L11.9451429,15.4685714 C12.4185298,15.4685714 12.8022857,15.0848155 12.8022857,14.6114286 L12.8022857,13.8205714 L15.9365714,13.54 C16.0943671,13.5257984 16.210773,13.3863671 16.1965714,13.2285714 C16.1823698,13.0707758 16.0429385,12.9543698 15.8851429,12.9685714 L15.8851429,12.9708571 Z M5.98628571,14.6114286 C5.98628571,14.7692242 5.85836707,14.8971429 5.70057143,14.8971429 L2.70914286,14.8971429 C2.55134721,14.8971429 2.42342857,14.7692242 2.42342857,14.6114286 L2.42342857,12.9857143 C2.42342857,12.8279186 2.55134721,12.7 2.70914286,12.7 L5.70057143,12.7 C5.85836707,12.7 5.98628571,12.8279186 5.98628571,12.9857143 L5.98628571,14.6114286 Z M12.2308571,14.6114286 C12.2308571,14.7692242 12.1029385,14.8971429 11.9451429,14.8971429 L8.95428571,14.8971429 C8.79649007,14.8971429 8.66857143,14.7692242 8.66857143,14.6114286 L8.66857143,12.9857143 C8.66857143,12.8279186 8.79649007,12.7 8.95428571,12.7 L11.9451429,12.7 C12.1029385,12.7 12.2308571,12.8279186 12.2308571,12.9857143 L12.2308571,14.6114286 Z" id="Shape"></path>
                            <path d="M11.6971429,12.6885714 L11.6971429,13.4485714 C11.6971429,13.7420713 11.4592142,13.98 11.1657143,13.98 C10.8722144,13.98 10.6342857,13.7420713 10.6342857,13.4485714 L10.6342857,12.6885714 C10.6342857,12.3950715 10.8722144,12.1571429 11.1657143,12.1571429 C11.4592142,12.1571429 11.6971429,12.3950715 11.6971429,12.6885714 Z" id="Path"></path>
                            <rect id="Rectangle" x="4.39428571" y="12.1571429" width="1.06857143" height="1.82285714" rx="0.534285714"></rect>
                            <path d="M16.6971429,23.3285714 C17.0791474,23.8636152 17.3190249,24.4869035 17.3942857,25.14 C17.4057143,26.0028571 16.8685714,26.6714286 15.8,27.1228571 C15.7257143,27.1514286 15.6514286,27.1857143 15.5714286,27.22 C15.6447752,27.4190138 15.6644821,27.6338198 15.6285714,27.8428571 C15.36,29.2828571 13.2171429,32.4257143 11.5371429,34.3342857 C11.2,34.3628571 11.2,34.3571429 10.8628571,34.3742857 C12.0857143,32.8314286 14.7485714,29.4542857 15.0628571,27.7457143 C15.0961373,27.5722507 15.0523396,27.3928887 14.9428571,27.2542857 C14.8417108,27.1355931 14.7146272,27.0417468 14.5714286,26.98 C14.9028571,26.86 15.2685714,26.7285714 15.5714286,26.5971429 C15.8857143,26.4657143 16.8342857,26.0657143 16.8228571,25.1457143 C16.8171429,24.8371429 16.6342857,24.0771429 15.72,22.8942857 C15.2156737,22.3150675 14.6611347,21.7815627 14.0628571,21.3 C14.0057143,21.06 13.9428571,20.7571429 13.88,20.4542857 C15.1031983,19.6492005 15.9815551,18.4162401 16.3428571,16.9971429 C16.4994461,17.0929061 16.6715549,17.1605894 16.8514286,17.1971429 C18.1771429,17.4942857 19.28,16.3171429 19.5714286,15.0085714 C19.7632861,14.2407899 19.6528177,13.4286426 19.2628571,12.74 C19.0685652,12.4307726 18.7886614,12.184616 18.4571429,12.0314286 C18.8514286,9.82571429 19.4057143,6.59142857 18.4457143,4.78 C18.1480639,4.32231208 17.674499,4.00798078 17.1371429,3.91142857 C16.5942857,3.74 16.6057143,3.7 16.6342857,3.59714286 C16.7570132,2.85981127 16.431824,2.11972563 15.8057143,1.71142857 C15.1636902,1.25510957 14.2944076,1.29035075 13.6914286,1.79714286 C13.5618637,1.8742717 13.4044572,1.88896297 13.2628571,1.83714286 C13.1985755,1.82045175 13.1432703,1.77948496 13.1085714,1.72285714 C13.0659863,0.991414513 12.5183721,0.389038844 11.7942857,0.277142857 C11.197244,0.113796052 10.565256,0.374579177 10.2571429,0.911428571 C10.171759,0.959207533 10.0704173,0.969548517 9.97714286,0.94 C9.74661251,0.350871002 9.15606505,-0.0164774161 8.52571429,0.0371428571 C7.9228311,0.0359078532 7.38273532,0.40964502 7.17142857,0.974285714 C7.14404805,1.00589095 7.104657,1.02454987 7.06285714,1.02571429 C7.03577738,1.03229057 7.00727019,1.02351913 6.98857143,1.00285714 C6.5748548,0.499074377 5.8660306,0.351600886 5.28571429,0.648571429 C4.71038814,0.902193814 4.39278269,1.52546466 4.52571429,2.14 C4.49689482,2.15973894 4.46339625,2.17156196 4.42857143,2.17428571 C3.90896863,1.99984618 3.33658039,2.0963161 2.90285714,2.43142857 C2.53583323,2.7173286 2.34685973,3.17564364 2.40571429,3.63714286 C2.45142857,4.05428571 2.44,4.16285714 1.89714286,4.46 C1.50699547,4.69016514 1.23908052,5.08157213 1.16571429,5.52857143 C0.862857143,6.94 1.78285714,9.11142857 2.41142857,10.0085714 C2.40571429,10.7057143 2.54285714,13.1914286 2.56,13.6657143 C2.68,17.0028571 3.32,19.1971429 4.56571429,20.5685714 C5.58769349,21.636207 6.99372783,22.2514885 8.47142857,22.2777143 C8.608,22.2845714 8.98285714,22.2828571 9.04285714,22.2828571 C9.04857143,22.2942857 9.04857143,22.3114286 9.05428571,22.3285714 C7.28857143,23.0657143 5.38571429,24.2828571 4.91714286,25.3342857 C4.47714286,26.3114286 5.40285714,26.7285714 5.84285714,26.98 C5.29428571,27.1685714 4.7,27.4828571 4.67714286,27.9628571 C4.59714286,29.6714286 5.52285714,32.8257143 6.12285714,34.1971429 C5.88857143,34.1628571 5.87771429,34.1628571 5.66057143,34.1228571 C5.244,33.512 4.03142857,29.4885714 4.10571429,27.9342857 C4.13740938,27.511681 4.36599765,27.128584 4.72285714,26.9 C4.40884028,26.617185 4.23012066,26.2140268 4.23142857,25.7914286 C2.55767765,26.8624471 1.1988605,28.3593153 0.294285714,30.1285714 C-0.202857143,31.2314286 -0.0371428571,32.2714286 0.717142857,32.8371429 C1.68857143,33.5571429 3.48857143,34.4828571 6.58571429,34.8428571 C7.26571429,34.9228571 8.66571429,34.9914286 9.33428571,34.9914286 C9.63714286,34.9914286 10.4771429,34.9685714 10.6028571,34.9628571 C15.5571429,34.7457143 22.4200025,33.1514286 22.4200025,30.7114286 C22.4228571,28.0771429 19.9371429,24.9514286 16.6971429,23.3285714 L16.6971429,23.3285714 Z M9.65714286,22.4657143 C9.64650362,22.3773573 9.63124463,22.2896181 9.61142857,22.2028571 C10.0765907,22.1360237 10.5327804,22.0171843 10.9714286,21.8485714 C11.0759224,21.8139732 11.1512488,21.7224251 11.165074,21.6132241 C11.1788992,21.504023 11.1287644,21.3965911 11.0361897,21.3370434 C10.943615,21.2774956 10.8250656,21.2764229 10.7314286,21.3342857 C10.2446314,21.5059354 9.74077973,21.6247141 9.22857143,21.6885714 C8.89662747,21.7285416 8.56108682,21.7285416 8.22914286,21.6885714 C6.99786613,21.6150609 5.84007481,21.0781201 4.98857143,20.1857143 C3.84,18.9228571 3.24571429,16.8428571 3.13142857,13.6428571 C3.11428571,13.1685714 2.96571429,10.62 2.98285714,9.91142857 C2.95752603,9.31009217 3.04473569,8.70931448 3.24,8.14 C3.45714286,7.59142857 4.05714286,6.66571429 4.93142857,6.66571429 C5.42285714,6.66571429 6.99428571,6.95142857 7.66857143,6.95714286 C8.36571429,6.94571429 10.9657143,6.50571429 11.4342857,6.55142857 C13.3371429,6.74 14,8.96285714 14.0114286,9.94571429 C14.0457143,12.7628571 14.6571429,13.1171429 15.6514286,13.4657143 C15.6514286,13.4657143 15.7714286,13.5114286 15.8114286,13.5228571 C15.9454651,13.5590296 16.0876976,13.506266 16.1657143,13.3914286 C16.2920087,13.1800004 16.4522462,12.9908044 16.64,12.8314286 C17.0101671,12.5272703 17.4919582,12.3943624 17.9657143,12.4657143 C18.3027853,12.5411763 18.5952627,12.749206 18.7771429,13.0428571 C19.0869346,13.6037762 19.172691,14.2612416 19.0171429,14.8828571 C18.7885714,15.8942857 17.9428571,16.86 16.9714286,16.6428571 C16.7337566,16.5753857 16.5147816,16.4541674 16.3314286,16.2885714 C16.2504095,16.2246031 16.1411853,16.2093117 16.0457143,16.2485714 C15.9524867,16.2864058 15.8869409,16.3716154 15.8742857,16.4714286 C15.8685714,16.5 15.4514286,19.1057143 13.1885714,20.1971429 C13.0495813,20.2662782 12.9912226,20.4337422 13.0571429,20.5742857 C13.1051568,20.6732348 13.2043396,20.7371526 13.3142857,20.74 C13.3257143,20.74 13.3371429,20.7285714 13.3542857,20.7285714 C13.4742857,21.3228571 13.6,21.8485714 13.64,22.0028571 C13.8457143,22.78 13.7028571,23.82 13.1942857,25.2657143 C12.2481892,26.2773932 10.7975595,26.641727 9.48571429,26.1971429 C8.95428571,26.02 8.63428571,25.74 8.6,25.4428571 C8.79428571,24.9457143 8.98857143,24.4942857 9.15428571,24.1114286 C9.53714286,23.2428571 9.72571429,22.7685714 9.65714286,22.4657143 L9.65714286,22.4657143 Z M9.15428571,34.42 C8.64571429,34.4142857 8.14285714,34.3971429 7.64,34.3628571 C7.4,30.6542857 7.55428571,29.0714286 7.89714286,27.6371429 C8.01776451,27.138314 8.16463555,26.6462007 8.33714286,26.1628571 C8.60846271,26.4294377 8.93956423,26.6273149 9.30285714,26.74 C9.72754744,26.8760562 10.1712052,26.9435694 10.6171429,26.94 C11.3684043,26.9462918 12.1078718,26.7530443 12.76,26.38 C12.6628571,26.6085714 9.52571429,33.5914286 9.15428571,34.42 L9.15428571,34.42 Z" id="Shape"></path>
                        </g>
                    </g>
                </g>
            </g>
        </g>
    </g>
</svg>