<?xml version="1.0" encoding="UTF-8"?>
<svg width="29px" height="35px" viewBox="0 0 29 35" version="1.1" xmlns="http://www.w3.org/2000/svg" xmlns:xlink="http://www.w3.org/1999/xlink">
    <!-- Generator: Sketch 60.1 (88133) - https://sketch.com -->
    <title>meeting</title>
    <desc>Created with Sketch.</desc>
    <g id="Page-1" stroke="none" stroke-width="1" fill="none" fill-rule="evenodd" opacity="0.8">
        <g id="Audience-Selection---Groups" transform="translate(-56.000000, -377.000000)" fill="#953332" fill-rule="nonzero">
            <g id="Group-5" transform="translate(20.000000, 118.000000)">
                <g id="Group-10" transform="translate(0.000000, 37.000000)">
                    <g id="Group-4-Copy-5" transform="translate(0.000000, 212.000000)">
                        <g id="meeting" transform="translate(36.000000, 10.000000)">
                            <path d="M22.75,30.8212121 L22.7563126,33.1201365 C22.7590604,34.1067157 23.5405581,34.9045455 24.5030413,34.9045455 C24.5046751,34.9045455 24.5064575,34.9045455 24.5080913,34.9045455 C25.4728767,34.9017306 26.2527406,34.098271 26.25,33.1100181 L26.2436802,30.8212121 L22.75,30.8212121 Z" id="XMLID_244_"></path>
                            <path d="M18.6668899,30.2378788 L18.6666667,33.0654769 C18.6665923,34.0811356 19.4499911,34.9044673 20.4164807,34.9045455 C20.4165551,34.9045455 20.4165551,34.9045455 20.4166295,34.9045455 C21.3829702,34.9045455 22.1665179,34.081292 22.1665179,33.0657115 L22.1666667,30.70822 L19.9391505,30.70822 C19.4581748,30.7083764 19.0158111,30.5319202 18.6668899,30.2378788 Z" id="XMLID_1025_"></path>
                            <circle id="XMLID_1026_" cx="4.08333333" cy="3.40454545" r="2.91666667"></circle>
                            <path d="M11.5349569,12.7646923 L6.92031731,12.2232749 L3.90247046,9.2245231 L6.76497152,10.7253611 L7.82037822,10.84915 L7.82037822,9.54550464 C7.82037822,8.40913553 6.89924966,7.48787879 5.76287123,7.48787879 L2.09372666,7.48787879 C0.957423197,7.48787879 0.0362196711,8.40913553 0.0362196711,9.54550464 L0,33.1358855 C-0.00276672374,34.1098519 0.78453353,34.9016963 1.75851864,34.9045455 C1.76024303,34.9045455 1.76189246,34.9045455 1.76361686,34.9045455 C2.7352028,34.9045455 3.52422745,34.1181744 3.52700148,33.1458576 L3.56388861,20.1073792 C3.56388861,20.1057297 3.56381364,20.1040801 3.56381364,20.1024306 L4.32434823,20.1024306 L4.32532289,33.141059 C4.32539787,34.1150254 5.11502231,34.9045455 6.08893244,34.9045455 C7.06284257,34.9045455 7.85239204,34.1148004 7.85231707,33.140834 C7.85111749,17.453377 7.82030324,16.7682265 7.82030324,16.7682265 L5.90224759,16.543217 C5.3156523,16.474387 4.59500378,16.488333 4.17305103,15.7089349 L1.83071844,11.3096659 L5.20881458,14.6664385 C5.44220813,14.898346 5.74667688,15.0452282 6.07341286,15.083542 L11.1924015,15.6841172 C11.9993449,15.7786646 12.7286904,15.2011078 12.8231574,14.3956923 C12.9178493,13.5894521 12.3410756,12.8592397 11.5349569,12.7646923 Z" id="XMLID_1027_"></path>
                            <circle id="XMLID_1028_" cx="22.1666667" cy="3.40454545" r="2.91666667"></circle>
                            <path d="M27.7984732,22.9667553 L26.2465786,22.9667553 C26.2465786,22.0338356 26.2465786,21.871824 26.2465786,20.7845574 C26.2465786,20.369534 25.9084188,20.0331119 25.4912518,20.0331119 L25.2561185,20.0331119 C25.3405641,19.5100306 25.9059262,16.0078435 25.9960367,15.4494443 C26.0353893,15.205976 26.0125784,14.9566463 25.9298701,14.7242242 L24.176832,9.79962586 L24.282049,9.95517509 L26.207075,12.801726 L26.207075,9.55007079 C26.207075,8.41117993 25.2790049,7.48787879 24.1342316,7.48787879 L20.4377375,7.48787879 C19.2929641,7.48787879 18.364894,8.41117993 18.364894,9.55007079 L18.364894,10.0740538 L13.6193265,12.7727953 C13.9251583,13.3018881 14.0691236,13.9297209 13.9921558,14.5825016 C13.8941144,15.4142015 13.4562514,16.123491 12.8333333,16.590815 C12.9058447,16.5635375 12.9772986,16.5309999 13.0467887,16.491549 L18.3648185,13.4672061 L18.3334724,22.1409166 C18.9568437,21.644136 19.5732659,21.6892978 19.892316,21.6892978 L19.892316,20.7845574 C19.892316,19.9896783 20.3600899,19.2800131 21.0632992,18.9493019 L21.7381082,14.7691607 L21.4676256,11.7027368 L21.3855971,10.7831929 L23.0124957,15.3534096 C22.9340927,15.8389186 22.3447112,19.489967 22.2570933,20.0331119 L21.931774,20.0331119 C21.514607,20.0331119 21.1764471,20.369534 21.1764471,20.7845574 C21.1764471,21.8625812 21.1764471,22.0401478 21.1764471,22.9667553 L19.6246281,22.9667553 C19.1910705,22.9667553 18.8396925,23.3164029 18.8396925,23.7476575 L18.8396925,28.8736432 C18.8396925,29.304973 19.191146,29.6545455 19.6246281,29.6545455 L27.7983977,29.6545455 C28.2319553,29.6545455 28.5833333,29.3048978 28.5833333,28.8736432 L28.5833333,23.7476575 C28.5833333,23.3164029 28.2319553,22.9667553 27.7984732,22.9667553 Z M23.4429564,21.9761997 C23.5224923,21.9888992 23.6014995,21.995061 23.6795248,21.995061 C24.0123218,21.995061 24.3257825,21.8820436 24.5782882,21.6892227 L24.7358494,21.6892227 L24.7358494,22.9666801 L22.6871008,22.9666801 L22.6871008,21.6892227 L22.7743411,21.6892227 C22.9634749,21.8343268 23.1906017,21.9359223 23.4429564,21.9761997 Z" id="XMLID_1031_"></path>
                        </g>
                    </g>
                </g>
            </g>
        </g>
    </g>
</svg>