<?xml version="1.0" encoding="UTF-8"?>
<svg width="22px" height="35px" viewBox="0 0 22 35" version="1.1" xmlns="http://www.w3.org/2000/svg" xmlns:xlink="http://www.w3.org/1999/xlink">
    <!-- Generator: Sketch 60.1 (88133) - https://sketch.com -->
    <title>mother-with-baby-in-arms</title>
    <desc>Created with Sketch.</desc>
    <g id="Page-1" stroke="none" stroke-width="1" fill="none" fill-rule="evenodd" opacity="0.8">
        <g id="Audience-Selection---Groups" transform="translate(-294.000000, -382.000000)" fill="#B13D00" fill-rule="nonzero">
            <g id="Group-5" transform="translate(20.000000, 118.000000)">
                <g id="Group-10" transform="translate(0.000000, 37.000000)">
                    <g id="Group-4-Copy-6" transform="translate(235.000000, 212.000000)">
                        <g id="mother-with-baby-in-arms" transform="translate(39.000000, 15.000000)">
                            <path d="M11.1682812,9.74859375 C13.7714062,9.74859375 15.8801562,7.56546875 15.8801562,4.87703125 C15.8801562,2.183125 13.7714062,0 11.1682812,0 C8.56296875,0 6.44984375,2.183125 6.44984375,4.87703125 C6.44984375,7.56546875 8.56296875,9.74859375 11.1682812,9.74859375 Z" id="Path"></path>
                            <path d="M19.5289062,13.881875 C19.2948437,13.1709375 17.9582812,11.0151562 14.3314062,10.9954688 L7.231875,11.0140625 C3.71109375,10.8171875 2.305625,12.8975 2.08578125,13.8195312 C2.08578125,13.8195312 -0.29203125,21.41125 0.1159375,23.17 C0.36859375,24.2615625 2.26296875,25.5970312 4.27984375,26.5901562 L1.59359375,34.7746875 L20.5351562,34.7746875 L17.9221875,26.3035937 C19.7225,25.3509375 21.3040625,24.1620312 21.5326562,23.17 C21.9460937,21.3904687 19.5289062,13.881875 19.5289062,13.881875 Z M7.99203125,22.2479688 C7.6628125,22.3945312 7.29859375,22.47875 6.916875,22.47875 C5.4359375,22.47875 4.2371875,21.2603125 4.2371875,19.7585937 C4.2371875,18.256875 5.43703125,17.0395312 6.916875,17.0395312 C8.37046875,17.0395312 9.56484375,18.2164062 9.60421875,19.6842187 C10.0657813,19.3528125 10.5382812,19.1975 10.8926562,19.1329687 C10.8926562,19.1351562 10.8926562,19.1373437 10.8926562,19.140625 C11.4253125,19.0389062 11.83875,19.140625 11.83875,19.140625 C13.6259375,19.5365625 17.5754687,21.28875 17.5754687,21.28875 C17.5754687,21.28875 15.4557813,23.91375 11.6057812,23.8973437 C11.5051562,23.8973437 11.4067187,23.8951562 11.31375,23.8907812 L11.3126562,23.8907812 C10.9582812,23.8820312 10.64,23.8590625 10.3534375,23.8240625 C8.535625,23.6096875 8.015,22.9315625 7.99203125,22.2479688 Z" id="Shape"></path>
                        </g>
                    </g>
                </g>
            </g>
        </g>
    </g>
</svg>