<?xml version="1.0" encoding="UTF-8"?>
<svg width="35px" height="35px" viewBox="0 0 35 35" version="1.1" xmlns="http://www.w3.org/2000/svg" xmlns:xlink="http://www.w3.org/1999/xlink">
    <!-- Generator: Sketch 60.1 (88133) - https://sketch.com -->
    <title>old-folks-couple</title>
    <desc>Created with Sketch.</desc>
    <g id="Page-1" stroke="none" stroke-width="1" fill="none" fill-rule="evenodd" opacity="0.8">
        <g id="Audience-Selection---Groups" transform="translate(-171.000000, -488.000000)" fill="#953332" fill-rule="nonzero">
            <g id="Group-5" transform="translate(20.000000, 118.000000)">
                <g id="Group-10" transform="translate(0.000000, 37.000000)">
                    <g id="Group-4-Copy-8" transform="translate(118.000000, 318.000000)">
                        <g id="old-folks-couple" transform="translate(33.000000, 15.000000)">
                            <path d="M12.9634913,24.5769043 C12.5750726,22.8924622 13.5903155,21.18678 15.2743355,20.6930376 L18.9,19.6310284 C18.6111912,19.1999777 18.3421249,18.758564 18.1163575,18.3103153 C17.1351405,17.9897282 16.2743228,17.0988164 15.8463444,15.8959165 C15.7714874,15.6845436 15.7140547,15.469496 15.6721019,15.2545218 L14.0322782,14.7740821 C12.8779404,16.1591772 11.389102,17.1246868 9.65348232,17.1246868 C7.91793744,17.1246868 6.42909897,16.1591772 5.27461165,14.7740821 L1.36843915,15.9189941 C0.556828128,16.1568253 0,16.8908978 0,17.7230132 L0,19.2867023 C0,24.5264129 4.32143795,28.7740821 9.65348232,28.7740821 C11.1294582,28.7740821 12.5223512,28.4390163 13.773831,27.8568589 C13.6662942,27.5332585 13.5703487,27.2039989 13.4919769,26.8660669 L12.9634913,24.5769043 Z" id="Path"></path>
                            <path d="M32.7741271,21.597819 L28.7664401,20.3740821 C27.5580539,21.8593266 25.9891613,22.9750263 24.1499259,22.9750263 C22.3106904,22.9750263 20.7417978,21.8593266 19.5322993,20.3740821 L15.5258729,21.597819 C14.44858,21.9269447 13.8049773,23.0552564 14.0530758,24.1780219 L14.5773005,26.5432143 C15.5930508,31.1236995 19.5658883,34.3740821 24.15,34.3740821 C28.7339634,34.3740821 32.7068751,31.1236995 33.7227737,26.5438221 L34.2469242,24.1780219 C34.4950227,23.0551805 33.85142,21.9269447 32.7741271,21.597819 Z" id="Path"></path>
                            <path d="M3.43807812,11.0954476 C3.80001816,11.5622198 4.26098779,11.8431656 4.70128974,11.8347155 C5.69531029,14.1693993 7.44804655,16.1740821 9.45010954,16.1740821 C11.4520265,16.1740821 13.2046897,14.1693993 14.1987833,11.8347155 C14.6391583,11.8430908 15.0999818,11.562145 15.4619219,11.0954476 C15.6534083,10.8490499 15.819407,10.5563638 15.9341382,10.2184362 C16.1493596,9.58602791 16.1460733,8.95915324 15.9765691,8.47802338 C15.8434341,8.10083672 15.6099551,7.81106702 15.2827776,7.69336444 C15.2293922,7.71116191 15.1761528,7.73075408 15.1182395,7.7353904 C15.10042,7.7368112 15.0827466,7.73725988 15.0648541,7.73725988 C14.9587405,7.73725988 14.8602221,7.70413266 14.7678383,7.65836774 C14.5917614,7.57110033 14.4486943,7.41802715 14.3904158,7.21739436 C14.3763209,7.1692365 14.0197121,6.03505923 11.9138725,6.03505923 C11.7115045,6.03505923 11.4972325,6.04582745 11.2716407,6.06684042 C11.2716407,6.06684042 11.0513802,6.08688127 10.7118606,6.08688127 C9.58857571,6.08688127 8.07567219,5.88804318 7.24750431,4.94245924 C7.07237675,4.74220034 6.93748909,4.51816163 6.84422891,4.27408207 C6.0655028,4.78048733 4.94601554,5.73736294 4.51535364,7.24072549 C4.4605076,7.43073963 4.33109724,7.57401672 4.17064884,7.66225627 C4.07081591,7.71729381 3.96192717,7.7555808 3.84376353,7.7555808 C3.81637703,7.7555808 3.78906355,7.75415999 3.76123887,7.75042103 C3.70471312,7.74346656 3.65417589,7.72103278 3.60261623,7.70091715 C3.28361824,7.82228391 3.05466706,8.10651994 2.92350397,8.47809816 C2.7538537,8.9593028 2.75071338,9.58610268 2.96578873,10.218511 C3.08073901,10.5563638 3.24666471,10.8490499 3.43807812,11.0954476 Z" id="Path"></path>
                            <path d="M7.28767076,3.15827863 C7.06864876,5.16848623 9.58352956,5.38858637 10.6972109,5.38858637 C11.0096913,5.38858637 11.2119464,5.37121402 11.2119464,5.37121402 C11.4687127,5.34719485 11.709464,5.33631825 11.9347266,5.33631825 C14.7546442,5.33631825 15.1798311,7.06509377 15.1798311,7.06509377 L15.3544171,5.76345149 C15.7219349,3.02760834 13.8272781,0.50499191 11.1081873,0.108449116 C10.9496163,0.0854118676 10.7904438,0.0740820734 10.6323991,0.0740820734 C9.72382995,0.0740820734 8.84729084,0.449400387 8.21639019,1.12541144 L8.16849558,1.1768487 C7.7512786,0.985450713 7.3058662,0.891186825 6.86255906,0.891186825 C6.22429002,0.891186825 5.59023149,1.08628588 5.05090956,1.46817547 C4.02467158,2.19464187 3.4413648,3.39922558 3.5046729,4.6584189 L3.62572523,7.07408207 C4.44579832,4.2679942 7.28767076,3.15827863 7.28767076,3.15827863 Z" id="Path"></path>
                            <path d="M31.3715304,13.2888322 C31.2255753,12.857214 30.9796518,12.4481195 30.5890935,12.3923713 C30.5043808,12.3803237 30.4021389,12.4100311 30.3375226,12.4100311 C30.2396079,12.4100311 30.0148077,12.2861878 29.9567923,12.2419634 C28.6618255,11.2436591 26.4772657,10.5740821 24.1487311,10.5740821 C21.8201231,10.5740821 19.6379837,11.2436591 18.3431636,12.2419634 C18.2850749,12.2861878 18.0604213,12.4100311 17.9626534,12.4100311 C17.8978904,12.4100311 17.7956484,12.3803237 17.7109358,12.3923713 C17.3202307,12.4481195 17.074454,12.857214 16.9284988,13.2888322 C16.748512,13.818702 16.7490987,14.5012994 16.9844605,15.1907063 C17.1084857,15.554005 17.286199,15.870535 17.4906829,16.1389495 C17.8955434,16.6692682 18.4165079,16.9900636 18.9132688,16.9804854 C20.0070522,19.539814 21.9525829,21.7740821 24.1499046,21.7740821 C26.347373,21.7740821 28.2928303,19.5398889 29.3865404,16.9804854 C29.883448,16.9900636 30.4044125,16.6693431 30.809273,16.1389495 C31.0137569,15.870535 31.1916168,15.554005 31.3155687,15.1907063 C31.5509305,14.5012994 31.5514439,13.818702 31.3715304,13.2888322 Z" id="Path"></path>
                            <path d="M19.6145366,10.9932726 L19.8877201,8.68155373 L20.3535175,10.7653889 C21.4799853,10.4558368 22.7724113,10.2775273 24.1503012,10.2775273 C24.8827311,10.2775273 25.5882042,10.3311849 26.2605458,10.4246738 L26.9146651,7.37013023 L27.165259,10.5794141 C28.5753768,10.8717012 29.7824141,11.3569837 30.6411199,11.9740821 C30.7430742,11.5352216 30.8,11.081102 30.8,10.6126546 C30.8,8.38475336 29.5874659,6.42915199 27.7576335,5.30219892 C27.7640339,5.23170614 27.7834609,5.16536843 27.7834609,5.09372943 C27.7834609,4.83683199 27.7296224,4.59103859 27.6529684,4.3529822 C27.2496688,3.10187874 25.8680139,2.17408207 24.2094106,2.17408207 C22.5808515,2.17408207 21.2217109,3.06964119 20.7916051,4.28714596 C20.699816,4.54511799 20.6358874,4.81225981 20.6358874,5.09372943 C20.6358874,5.14330362 20.6504201,5.18915258 20.6535826,5.23779546 C18.7629842,6.35400269 17.5,8.34026554 17.5,10.6125829 C17.5,11.0810303 17.5575282,11.5351499 17.6594825,11.9740821 C18.1900368,11.5924611 18.853192,11.2603427 19.6145366,10.9932726 Z" id="Path"></path>
                        </g>
                    </g>
                </g>
            </g>
        </g>
    </g>
</svg>