<?xml version="1.0" encoding="UTF-8"?>
<svg width="38px" height="35px" viewBox="0 0 38 35" version="1.1" xmlns="http://www.w3.org/2000/svg" xmlns:xlink="http://www.w3.org/1999/xlink">
    <!-- Generator: Sketch 60.1 (88133) - https://sketch.com -->
    <title>portfolio</title>
    <desc>Created with Sketch.</desc>
    <g id="Page-1" stroke="none" stroke-width="1" fill="none" fill-rule="evenodd" opacity="0.8">
        <g id="Audience-Selection---Groups" transform="translate(-286.000000, -276.000000)" fill="#953332" fill-rule="nonzero">
            <g id="Group-5" transform="translate(20.000000, 118.000000)">
                <g id="Group-10" transform="translate(0.000000, 37.000000)">
                    <g id="Group-4-Copy-3" transform="translate(235.000000, 106.000000)">
                        <g id="portfolio" transform="translate(31.000000, 15.000000)">
                            <polygon id="Path" points="16 18.6992188 23 18.6992188 23 20.6992188 16 20.6992188"></polygon>
                            <path d="M30.8289032,21.17228 L24.5664062,21.17228 L24.5664062,22.2995249 C24.5664062,22.9224451 24.0683288,23.4267698 23.453125,23.4267698 L14.546875,23.4267698 C13.9316712,23.4267698 13.4335938,22.9224451 13.4335938,22.2995249 L13.4335938,21.17228 L7.17109682,21.17228 C5.7316589,21.17228 4.45863344,20.2431836 4.00288393,18.8605473 L0,6.69921875 L0,31.3174841 C0,33.182135 1.49829102,34.6992188 3.33984375,34.6992188 L34.6601562,34.6992188 C36.501709,34.6992188 38,33.182135 38,31.3174841 L38,6.70009943 L33.9968262,18.8605473 C33.5413666,20.2431836 32.2683411,21.17228 30.8289032,21.17228 Z" id="Path"></path>
                            <path d="M23.4309132,0.69921875 L14.5687983,0.69921875 C12.7363714,0.69921875 11.2455052,2.21328125 11.2455052,4.07421875 L11.2455052,5.19921875 L2,5.19921875 L6.17806018,17.9301758 C6.32951239,18.3904297 6.75242448,18.6992188 7.22957094,18.6992188 L13.4610339,18.6992188 L13.4610339,17.5742188 C13.4610339,16.9525391 13.9566431,16.4492188 14.5687983,16.4492188 L23.4309132,16.4492188 C24.0430684,16.4492188 24.5386776,16.9525391 24.5386776,17.5742188 L24.5386776,18.6992188 L30.7701406,18.6992188 C31.2472871,18.6992188 31.6701991,18.3904297 31.8216514,17.9301758 L36,5.19921875 L26.7542063,5.19921875 L26.7542063,4.07421875 C26.7542063,2.21328125 25.2633401,0.69921875 23.4309132,0.69921875 Z M13.4610339,5.19921875 L13.4610339,4.07421875 C13.4610339,3.45341795 13.9575085,2.94921875 14.5687983,2.94921875 L23.4309132,2.94921875 C24.042203,2.94921875 24.5386776,3.45341795 24.5386776,4.07421875 L24.5386776,5.19921875 L13.4610339,5.19921875 Z" id="Shape"></path>
                        </g>
                    </g>
                </g>
            </g>
        </g>
    </g>
</svg>