<?xml version="1.0"?>
<svg xmlns="http://www.w3.org/2000/svg" id="Layer_5" enable-background="new 0 0 64 64" height="512px" viewBox="0 0 64 64" width="512px"><g><path d="m57 10h6v2h-6z" data-original="#000000" class="active-path" data-old_color="#000000" fill="#757575"/><path d="m55.646 2.5h6.708v2h-6.708z" transform="matrix(.894 -.447 .447 .894 4.664 26.755)" data-original="#000000" class="active-path" data-old_color="#000000" fill="#757575"/><path d="m58 15.146h2v6.708h-2z" transform="matrix(.447 -.894 .894 .447 16.067 62.998)" data-original="#000000" class="active-path" data-old_color="#000000" fill="#757575"/><path d="m47 49h-14v6h-2.556c.344-.591.556-1.268.556-2v-8c0-4.963-4.037-9-9-9h-2.001l.001-11c0-.552.448-1 1-1h12c0 2.206 1.794 4 4 4s4-1.794 4-4v-7.219l8.126 2.031c.356 1.258 1.503 2.188 2.874 2.188 1.654 0 3-1.346 3-3v-14c0-1.654-1.346-3-3-3-1.371 0-2.518.93-2.874 2.188l-20.126 5.031v5.562l4 1v2.219h-15.111c1.301-1.272 2.111-3.042 2.111-5 0-3.859-3.141-7-7-7s-7 3.141-7 7c0 2.047.889 3.886 2.294 5.167-4.149.8-7.294 4.454-7.294 8.833v10c0 2.757 2.243 5 5 5v18c0 2.206 1.794 4 4 4s4-1.794 4-4v-15h8c.552 0 1 .448 1 1v8c0 .732.212 1.409.556 2h-4.556v8h14 2 12 2 14v-20h-16zm4-45c0-.552.448-1 1-1s1 .448 1 1v14c0 .552-.448 1-1 1s-1-.448-1-1zm-20 5.781 18-4.501v11.44l-18-4.501zm8 6.5v7.719c0 1.103-.897 2-2 2s-2-.897-2-2v-8.719zm-23.031 2.719-2.969 3.463-2.969-3.463zm-7.969-7c0-2.757 2.243-5 5-5s5 2.243 5 5-2.243 5-5 5-5-2.243-5-5zm17 41v-8c0-1.654-1.346-3-3-3h-8v-5h-2v22c0 1.103-.897 2-2 2s-2-.897-2-2v-35h-2v15c-1.654 0-3-1.346-3-3v-10c0-3.064 1.982-5.668 4.729-6.614l5.271 6.151 5.602-6.537h14.398v3h-12c-1.654 0-3 1.346-3 3l-.001 13h4.001c3.859 0 7 3.141 7 7v8c0 1.103-.897 2-2 2s-2-.897-2-2zm8 8h-12v-4h12zm14 0h-12v-6-4h12zm2-16h12v16h-12v-12z" data-original="#000000" class="active-path" data-old_color="#000000" fill="#757575"/></g> </svg>
