<?xml version="1.0" encoding="UTF-8"?>
<svg width="35px" height="35px" viewBox="0 0 35 35" version="1.1" xmlns="http://www.w3.org/2000/svg" xmlns:xlink="http://www.w3.org/1999/xlink">
    <!-- Generator: Sketch 60.1 (88133) - https://sketch.com -->
    <title>study</title>
    <desc>Created with Sketch.</desc>
    <g id="Page-1" stroke="none" stroke-width="1" fill="none" fill-rule="evenodd" opacity="0.8">
        <g id="Audience-Selection---Groups" transform="translate(-171.000000, -170.000000)" fill="#FFFFFF" fill-rule="nonzero">
            <g id="Group-5" transform="translate(20.000000, 118.000000)">
                <g id="Group-10" transform="translate(0.000000, 37.000000)">
                    <g id="Group-4" transform="translate(118.000000, 0.000000)">
                        <g id="study" transform="translate(33.000000, 15.000000)">
                            <path d="M17.9605263,0 C14.659182,0 11.9736842,2.73681375 11.9736842,6.01991858 C11.9736842,9.30302341 14.659182,11.9736842 17.9605263,11.9736842 C21.2618706,11.9736842 23.9473684,9.30302341 23.9473684,6.01991858 C23.9473684,2.73681375 21.2618706,0 17.9605263,0 Z" id="Path"></path>
                            <path d="M19.9519363,11.9736842 L17.9605263,11.9736842 L15.9691164,11.9736842 C14.5646413,11.9736842 13.2074954,12.3600865 11.9736842,13.0174438 C14.0692449,13.6192676 16.0423339,14.4860409 17.9605263,15.6578947 C19.8787851,14.4860409 21.8518077,13.6192676 23.9473684,13.0174438 C22.7135572,12.3600865 21.3564113,11.9736842 19.9519363,11.9736842 Z" id="Path"></path>
                            <path d="M33.1578947,18.4210526 C32.1405,18.4210526 31.3157895,19.348852 31.3157895,20.4934211 L31.3157895,24.6381579 C31.3157895,25.7825888 32.1405,26.7105263 33.1578947,26.7105263 C34.1752895,26.7105263 35,25.7825888 35,24.6381579 L35,20.4934211 C35,19.348852 34.1752895,18.4210526 33.1578947,18.4210526 Z" id="Path"></path>
                            <path d="M1.84210526,18.4210526 C0.824710526,18.4210526 0,19.348852 0,20.4934211 L0,24.6381579 C0,25.7825888 0.824710526,26.7105263 1.84210526,26.7105263 C2.8595,26.7105263 3.68421053,25.7825888 3.68421053,24.6381579 L3.68421053,20.4934211 C3.68421053,19.348852 2.8595,18.4210526 1.84210526,18.4210526 Z" id="Path"></path>
                            <path d="M2.88974807,14.7368421 C2.31068097,14.7368421 1.84210526,15.1884884 1.84210526,15.746634 L1.84210526,16.7564259 C4.15327513,16.7564259 6.03267648,18.5679253 6.03267648,20.7955936 L6.03267648,24.8347613 C6.03267648,27.0624296 4.15327513,28.873929 1.84210526,28.873929 L1.84210526,29.8837209 C1.84210526,30.4418666 2.31068097,30.8935129 2.88974807,30.8935129 C8.26073335,30.8935129 12.5553006,32.5284333 16.5789474,35 L16.5789474,18.008164 C12.5371414,15.7745043 8.19103018,14.7368421 2.88974807,14.7368421 Z" id="Path"></path>
                            <path d="M33.1578947,16.7564259 L33.1578947,15.746634 C33.1578947,15.1884884 32.689319,14.7368421 32.1102519,14.7368421 C26.8089698,14.7368421 22.4628586,15.7745043 18.4210526,18.008164 L18.4210526,35 C22.4446994,32.5284333 26.7392667,30.8935129 32.1102519,30.8935129 C32.689319,30.8935129 33.1578947,30.4418666 33.1578947,29.8837209 L33.1578947,28.873929 C30.8467249,28.873929 28.9673235,27.0624296 28.9673235,24.8347613 L28.9673235,20.7955936 C28.9673235,18.5679253 30.8467249,16.7564259 33.1578947,16.7564259 Z" id="Path"></path>
                        </g>
                    </g>
                </g>
            </g>
        </g>
    </g>
</svg>