<?xml version="1.0" encoding="UTF-8"?>
<svg width="35px" height="36px" viewBox="0 0 35 36" version="1.1" xmlns="http://www.w3.org/2000/svg" xmlns:xlink="http://www.w3.org/1999/xlink">
    <!-- Generator: Sketch 60.1 (88133) - https://sketch.com -->
    <title>teenager-listening-music-with-headphones</title>
    <desc>Created with Sketch.</desc>
    <g id="Page-1" stroke="none" stroke-width="1" fill="none" fill-rule="evenodd" opacity="0.8">
        <g id="Audience-Selection---Groups" transform="translate(-168.000000, -276.000000)" fill="#953332" fill-rule="nonzero">
            <g id="Group-5" transform="translate(20.000000, 118.000000)">
                <g id="Group-10" transform="translate(0.000000, 37.000000)">
                    <g id="Group-3-Copy" transform="translate(118.000000, 106.000000)">
                        <g id="teenager-listening-music-with-headphones" transform="translate(30.000000, 15.000000)">
                            <path d="M17.8523558,2.15741228 C21.0466106,2.15741228 23.6356851,5.30710526 23.6356851,9.1922076 C23.6356851,13.0770029 21.0466106,16.2266959 17.8523558,16.2266959 C14.658774,16.2266959 12.069363,13.0770029 12.069363,9.1922076 C12.069363,5.30710526 14.6586899,2.15741228 17.8523558,2.15741228 Z" id="Path"></path>
                            <path d="M30.0209328,12.0733081 C29.5856054,10.9577375 28.4921544,10.4846674 27.5780846,11.0163707 L26.7688502,11.4862576 C27.0686321,10.8601867 27.2486863,10.0523633 27.2486863,9.17153076 C27.2486863,7.17389545 26.3241835,5.55588684 25.1837838,5.55588684 C24.9858924,5.55588684 24.7950686,5.60733206 24.6136681,5.69954325 C23.4797471,2.39041425 20.8015663,0.0582309942 17.6834306,0.0582309942 C14.5045476,0.0582309942 11.7872429,2.48611674 10.6939603,5.89782812 C10.5540396,5.90337311 10.3922432,5.92668262 10.2985982,5.92935243 C9.15845092,5.96560026 8.2674348,7.6109231 8.30824149,9.6066074 C8.34921645,11.6034212 9.30779498,13.1930888 10.4469326,13.1584839 C10.7324111,13.1490369 11.0019877,13.0399853 11.2448926,12.8490938 C11.2448926,12.8490938 11.1849026,12.7700263 11.0990823,12.6046006 C10.7292139,11.5332873 10.5407459,10.3952287 10.5407459,9.22246256 C10.5407459,4.41536379 13.7450384,0.504602984 17.6827575,0.504602984 C21.6214021,0.504602984 24.8255263,4.41628796 24.8255263,9.22246256 C24.8255263,10.3986173 24.6370584,11.5400645 24.264161,12.6153826 L24.6016365,12.7894338 C24.7375185,12.8338964 25.0420121,12.7869693 25.183279,12.7869693 C25.5104056,12.7869693 25.8188537,12.6499874 26.0936467,12.413093 L29.1251208,20.1758787 L25.0878671,17.5583337 L25.407842,15.9373472 C25.4931574,15.504427 25.2786909,15.0478891 24.9296886,14.9191221 L24.1501546,14.6315012 C23.8011523,14.5023234 23.3682649,14.7108767 23.1406729,15.0584657 C21.9335522,16.9021761 20.0147124,17.5976621 17.8527152,17.5976621 C15.5646801,17.5976621 13.5476518,16.7553364 12.3597986,14.7093365 C12.1492025,14.3461394 11.7232143,14.0906589 11.364452,14.1742446 L10.1028943,14.4686427 L0.757826456,22.7295537 C0.237183611,23.1884533 -0.0472011359,23.9471932 0.00639445101,24.7283185 C0.0605790004,25.51006 0.445592196,26.1989741 1.02126097,26.5450228 L11.1260905,32.6328097 L11.1780033,34.5945052 L23.6370842,35.058231 L24.3219634,22.1272031 L32.3075376,27.3046869 C32.5790493,27.480381 32.8739512,27.5660204 33.1666656,27.5660204 C33.6285805,27.5660204 34.0858678,27.3528462 34.434786,26.9450838 C35.0056589,26.2776308 35.161734,25.2385606 34.8219026,24.3661483 L30.0209328,12.0733081 Z M5.36889796,24.1772078 L10.6704859,19.4913801 L10.8117528,20.7456782 L10.9919753,27.5646855 L5.36889796,24.1772078 Z" id="Shape"></path>
                        </g>
                    </g>
                </g>
            </g>
        </g>
    </g>
</svg>